# xmcd CD database file
#
# Track frame offsets:
#	150
#	18370
#	33023
#	47009
#	60802
#	73416
#	97005
#	110569
#	129902
#	149766
#	168781
#	182104
#	196071
#	208366
#	219390
#	239653
#
# Disc length: 3446 seconds
#
# Revision: 0
# Processed by: cddbd v1.5.2PL0 Copyright (c) Steve Scherf et al.
# Submitted via: CDex 1.51
#
DISCID=ea0d7410
DTITLE=Eddy Mitchell - Grand Ecran
DYEAR=2009
DGENRE=Country
TTITLE0=Frappe aux portes du Paradis
TTITLE1=Toute la pluie tombe sur moi
TTITLE2=Je t'appartiens
TTITLE3=Comme un  étranger dans la ville 
TTITLE4=J'aime avril à Paris
TTITLE5=Les feuilles mortes
TTITLE6=16 Tonnes
TTITLE7=Pleurer des rivières
TTITLE8=Ma plus belle année
TTITLE9=Si toi aussi tu m'abandonnes
TTITLE10=Hier encore
TTITLE11=Je file droit
TTITLE12=Celui qui est seul
TTITLE13=Garde moi la dernière danse 
TTITLE14=Derrière l'arc-en-ciel  (Over the rainbow)
TTITLE15=La dernière séance
EXTD=YEAR: 2009
EXTT0=
EXTT1=
EXTT2=
EXTT3=
EXTT4=
EXTT5=
EXTT6=
EXTT7=
EXTT8=
EXTT9=
EXTT10=
EXTT11=
EXTT12=
EXTT13=
EXTT14=
EXTT15=
PLAYORDER=
